<svg width="139" height="153" viewBox="0 0 139 153" fill="none" xmlns="http://www.w3.org/2000/svg">
<path fill-rule="evenodd" clip-rule="evenodd" d="M78.5889 4.69591C63.5107 12.7959 52.6201 19.9728 39.5948 30.3941C9.9196 54.134 -2.06156 75.2462 1.65743 97.2384C3.64759 108.999 8.27747 117.88 16.7419 126.172C27.0822 136.302 36.3885 140.646 57.6658 145.275C60.5908 145.91 61.1172 146.549 60.5505 148.769C59.8821 151.387 60.205 151.488 69.6407 151.603C79.1342 151.72 79.408 151.642 78.8829 148.956C78.3024 145.979 79.1467 145.515 87.9253 143.986C110.1 140.126 129.754 123.941 135.739 104.61C138.083 97.0427 138.154 82.0982 135.888 73.7582C131.738 58.4911 117.643 41.6154 97.3207 27.5829C90.3011 22.7372 85.7504 18.7112 85.2944 16.9438C84.5141 13.9184 85.2956 6.43629 86.7656 2.86323C87.9341 0.0237437 86.8184 0.273596 78.5889 4.69591ZM53.5925 40.4031C47.2615 48.6261 41.384 60.7903 39.5421 69.4848C37.4891 79.1701 38.6638 96.9984 41.938 105.86C45.2625 114.858 50.7832 123.884 57.4196 131.176L62.4603 136.714L58.5692 130.927C39.9202 103.183 38.6236 68.0004 55.2548 40.9446C57.6218 37.0922 59.3356 33.9413 59.063 33.9413C58.7903 33.9413 56.329 36.8485 53.5925 40.4031ZM68.1807 45.634C67.6493 52.4035 67.2158 69.0195 67.2158 82.5585C67.2158 96.0974 67.6493 112.713 68.1807 119.483L69.1457 131.791L69.9334 122.56C70.3669 117.483 70.7225 99.4822 70.7225 82.5585C70.7225 65.6348 70.3669 47.6341 69.9334 42.557L69.1457 33.3259L68.1807 45.634ZM84.0957 41.7422C91.4005 53.7033 93.8819 62.3534 94.5868 78.3233C95.1132 90.2511 94.779 94.1958 92.5187 102.738C89.8778 112.721 84.6021 124.448 79.4483 131.791L76.8575 135.483L79.6066 133.14C84.8659 128.656 93.7462 114.437 96.9941 105.297C101.403 92.8862 101.703 76.5903 97.7517 64.0963C94.8268 54.8467 87.9441 42.6272 82.8469 37.6337C80.2059 35.0466 80.4056 35.7014 84.0957 41.7422ZM103.21 48.0957C112.06 60.3053 115.882 68.5395 117.81 79.5516C120.533 95.1066 116.246 108.971 103.945 124.398L98.0633 131.773L103.15 127.775C124.825 110.74 128.967 83.7942 113.682 59.2567C111.545 55.8264 106.707 49.6957 102.934 45.634L96.0718 38.2491L103.21 48.0957ZM34.24 47.5295C21.4673 61.3552 15.0458 77.181 16.0409 92.3742C16.7997 103.965 21.1796 113.173 30.4695 122.715C39.8687 132.367 44.8253 135.01 36.2176 125.779C23.9449 112.616 18.0398 95.0685 20.7511 79.8174C22.9373 67.5241 30.3388 53.1248 39.4315 43.4801C41.1867 41.6179 42.2823 40.0954 41.8652 40.0954C41.448 40.0954 38.0168 43.4407 34.24 47.5295Z" stroke="#101010"/>
</svg>
