<svg width="1117" height="1409" viewBox="0 0 1117 1409" fill="none" xmlns="http://www.w3.org/2000/svg">
<g opacity="0.2" clip-path="url(#clip0_3953_10315)">
<line x1="5.23815" y1="-15.3057" x2="5.23812" y2="719.192" stroke="white" stroke-width="1.6013"/>
<line x1="35.7147" y1="-15.3057" x2="35.7147" y2="719.192" stroke="white" stroke-width="1.6013"/>
<line x1="66.1952" y1="-15.3057" x2="66.1951" y2="719.192" stroke="white" stroke-width="1.6013"/>
<line x1="96.6717" y1="-15.3057" x2="96.6717" y2="719.192" stroke="white" stroke-width="1.6013"/>
<line x1="127.148" y1="-15.3057" x2="127.148" y2="719.192" stroke="white" stroke-width="1.6013"/>
<line x1="157.625" y1="-15.3057" x2="157.625" y2="719.192" stroke="white" stroke-width="1.6013"/>
<line x1="188.101" y1="-15.3057" x2="188.101" y2="719.192" stroke="white" stroke-width="1.6013"/>
<line x1="218.578" y1="-15.3057" x2="218.578" y2="719.192" stroke="white" stroke-width="1.6013"/>
<line x1="249.055" y1="-15.3057" x2="249.055" y2="719.192" stroke="white" stroke-width="1.6013"/>
<line x1="279.535" y1="-15.3057" x2="279.535" y2="719.192" stroke="white" stroke-width="1.6013"/>
<line x1="310.012" y1="-15.3057" x2="310.012" y2="719.192" stroke="white" stroke-width="1.6013"/>
<line x1="340.488" y1="-15.3057" x2="340.488" y2="719.192" stroke="white" stroke-width="1.6013"/>
<line x1="370.965" y1="-15.3057" x2="370.965" y2="719.192" stroke="white" stroke-width="1.6013"/>
<line x1="401.441" y1="-15.3057" x2="401.441" y2="719.192" stroke="white" stroke-width="1.6013"/>
<line x1="431.918" y1="-15.3057" x2="431.918" y2="719.192" stroke="white" stroke-width="1.6013"/>
<line x1="462.394" y1="-15.3057" x2="462.394" y2="719.192" stroke="white" stroke-width="1.6013"/>
<line x1="492.875" y1="-15.3057" x2="492.875" y2="719.192" stroke="white" stroke-width="1.6013"/>
<line x1="523.351" y1="-15.3057" x2="523.351" y2="719.192" stroke="white" stroke-width="1.6013"/>
<line x1="553.828" y1="-15.3057" x2="553.828" y2="719.192" stroke="white" stroke-width="1.6013"/>
<line x1="584.305" y1="-15.3057" x2="584.305" y2="719.192" stroke="white" stroke-width="1.6013"/>
<line x1="614.781" y1="-15.3057" x2="614.781" y2="719.192" stroke="white" stroke-width="1.6013"/>
<line x1="645.258" y1="-15.3057" x2="645.258" y2="719.192" stroke="white" stroke-width="1.6013"/>
<line x1="675.734" y1="-15.3057" x2="675.734" y2="719.192" stroke="white" stroke-width="1.6013"/>
<line x1="706.215" y1="-15.3057" x2="706.215" y2="719.192" stroke="white" stroke-width="1.6013"/>
<line x1="736.691" y1="-15.3057" x2="736.691" y2="719.192" stroke="white" stroke-width="1.6013"/>
<line x1="767.168" y1="-15.3057" x2="767.168" y2="719.192" stroke="white" stroke-width="1.6013"/>
<line x1="797.644" y1="-15.3057" x2="797.644" y2="719.192" stroke="white" stroke-width="1.6013"/>
<line x1="828.121" y1="-15.3057" x2="828.121" y2="719.192" stroke="white" stroke-width="1.6013"/>
<line x1="858.598" y1="-15.3057" x2="858.597" y2="719.192" stroke="white" stroke-width="1.6013"/>
<line x1="889.074" y1="-15.3057" x2="889.074" y2="719.192" stroke="white" stroke-width="1.6013"/>
<line x1="919.555" y1="-15.3057" x2="919.555" y2="719.192" stroke="white" stroke-width="1.6013"/>
<line x1="950.031" y1="-15.3057" x2="950.031" y2="719.192" stroke="white" stroke-width="1.6013"/>
<line x1="980.508" y1="-15.3057" x2="980.508" y2="719.192" stroke="white" stroke-width="1.6013"/>
<line x1="1010.98" y1="-15.3057" x2="1010.98" y2="719.192" stroke="white" stroke-width="1.6013"/>
<line x1="1041.46" y1="-15.3057" x2="1041.46" y2="719.192" stroke="white" stroke-width="1.6013"/>
<line x1="1071.94" y1="-15.3057" x2="1071.94" y2="719.192" stroke="white" stroke-width="1.6013"/>
<line x1="1102.41" y1="-15.3057" x2="1102.41" y2="719.192" stroke="white" stroke-width="1.6013"/>
<line x1="1158.56" y1="3.78014" x2="-42.2351" y2="3.78009" stroke="white" stroke-width="1.6013"/>
<line x1="1158.56" y1="34.2567" x2="-42.2351" y2="34.2566" stroke="white" stroke-width="1.6013"/>
<line x1="1158.56" y1="64.7342" x2="-42.2351" y2="64.7342" stroke="white" stroke-width="1.6013"/>
<line x1="1158.56" y1="95.2108" x2="-42.2351" y2="95.2107" stroke="white" stroke-width="1.6013"/>
<line x1="1158.56" y1="125.688" x2="-42.2351" y2="125.688" stroke="white" stroke-width="1.6013"/>
<line x1="1158.56" y1="156.165" x2="-42.2351" y2="156.165" stroke="white" stroke-width="1.6013"/>
<line x1="1158.56" y1="186.642" x2="-42.2351" y2="186.642" stroke="white" stroke-width="1.6013"/>
<line x1="1158.56" y1="217.12" x2="-42.2351" y2="217.12" stroke="white" stroke-width="1.6013"/>
<line x1="1158.56" y1="247.597" x2="-42.2351" y2="247.596" stroke="white" stroke-width="1.6013"/>
<line x1="1158.56" y1="278.074" x2="-42.2351" y2="278.074" stroke="white" stroke-width="1.6013"/>
<line x1="1158.56" y1="308.551" x2="-42.2351" y2="308.551" stroke="white" stroke-width="1.6013"/>
<line x1="1158.56" y1="339.028" x2="-42.2351" y2="339.028" stroke="white" stroke-width="1.6013"/>
<line x1="1158.56" y1="369.506" x2="-42.2351" y2="369.506" stroke="white" stroke-width="1.6013"/>
<line x1="1158.56" y1="399.982" x2="-42.2351" y2="399.982" stroke="white" stroke-width="1.6013"/>
<line x1="1158.56" y1="430.46" x2="-42.2351" y2="430.46" stroke="white" stroke-width="1.6013"/>
<line x1="1158.56" y1="460.936" x2="-42.2351" y2="460.936" stroke="white" stroke-width="1.6013"/>
<line x1="1158.56" y1="491.414" x2="-42.2351" y2="491.414" stroke="white" stroke-width="1.6013"/>
<line x1="1158.56" y1="521.89" x2="-42.2351" y2="521.89" stroke="white" stroke-width="1.6013"/>
<line x1="1158.56" y1="552.368" x2="-42.2351" y2="552.368" stroke="white" stroke-width="1.6013"/>
<line x1="1158.56" y1="582.845" x2="-42.2351" y2="582.845" stroke="white" stroke-width="1.6013"/>
<line x1="1158.56" y1="613.322" x2="-42.2351" y2="613.322" stroke="white" stroke-width="1.6013"/>
<line x1="1158.56" y1="643.8" x2="-42.2351" y2="643.8" stroke="white" stroke-width="1.6013"/>
<line x1="1158.56" y1="674.276" x2="-42.2351" y2="674.276" stroke="white" stroke-width="1.6013"/>
<line x1="1158.56" y1="704.754" x2="-42.2351" y2="704.754" stroke="white" stroke-width="1.6013"/>
</g>
<g opacity="0.2" clip-path="url(#clip1_3953_10315)">
<line x1="5.23815" y1="688.958" x2="5.23812" y2="1423.46" stroke="white" stroke-width="1.6013"/>
<line x1="35.7147" y1="688.958" x2="35.7147" y2="1423.46" stroke="white" stroke-width="1.6013"/>
<line x1="66.1952" y1="688.958" x2="66.1951" y2="1423.46" stroke="white" stroke-width="1.6013"/>
<line x1="96.6717" y1="688.958" x2="96.6717" y2="1423.46" stroke="white" stroke-width="1.6013"/>
<line x1="127.148" y1="688.958" x2="127.148" y2="1423.46" stroke="white" stroke-width="1.6013"/>
<line x1="157.625" y1="688.958" x2="157.625" y2="1423.46" stroke="white" stroke-width="1.6013"/>
<line x1="188.101" y1="688.958" x2="188.101" y2="1423.46" stroke="white" stroke-width="1.6013"/>
<line x1="218.578" y1="688.958" x2="218.578" y2="1423.46" stroke="white" stroke-width="1.6013"/>
<line x1="249.055" y1="688.958" x2="249.055" y2="1423.46" stroke="white" stroke-width="1.6013"/>
<line x1="279.535" y1="688.958" x2="279.535" y2="1423.46" stroke="white" stroke-width="1.6013"/>
<line x1="310.012" y1="688.958" x2="310.012" y2="1423.46" stroke="white" stroke-width="1.6013"/>
<line x1="340.488" y1="688.958" x2="340.488" y2="1423.46" stroke="white" stroke-width="1.6013"/>
<line x1="370.965" y1="688.958" x2="370.965" y2="1423.46" stroke="white" stroke-width="1.6013"/>
<line x1="401.441" y1="688.958" x2="401.441" y2="1423.46" stroke="white" stroke-width="1.6013"/>
<line x1="431.918" y1="688.958" x2="431.918" y2="1423.46" stroke="white" stroke-width="1.6013"/>
<line x1="462.394" y1="688.958" x2="462.394" y2="1423.46" stroke="white" stroke-width="1.6013"/>
<line x1="492.875" y1="688.958" x2="492.875" y2="1423.46" stroke="white" stroke-width="1.6013"/>
<line x1="523.351" y1="688.958" x2="523.351" y2="1423.46" stroke="white" stroke-width="1.6013"/>
<line x1="553.828" y1="688.958" x2="553.828" y2="1423.46" stroke="white" stroke-width="1.6013"/>
<line x1="584.305" y1="688.958" x2="584.305" y2="1423.46" stroke="white" stroke-width="1.6013"/>
<line x1="614.781" y1="688.958" x2="614.781" y2="1423.46" stroke="white" stroke-width="1.6013"/>
<line x1="645.258" y1="688.958" x2="645.258" y2="1423.46" stroke="white" stroke-width="1.6013"/>
<line x1="675.734" y1="688.958" x2="675.734" y2="1423.46" stroke="white" stroke-width="1.6013"/>
<line x1="706.215" y1="688.958" x2="706.215" y2="1423.46" stroke="white" stroke-width="1.6013"/>
<line x1="736.691" y1="688.958" x2="736.691" y2="1423.46" stroke="white" stroke-width="1.6013"/>
<line x1="767.168" y1="688.958" x2="767.168" y2="1423.46" stroke="white" stroke-width="1.6013"/>
<line x1="797.644" y1="688.958" x2="797.644" y2="1423.46" stroke="white" stroke-width="1.6013"/>
<line x1="828.121" y1="688.958" x2="828.121" y2="1423.46" stroke="white" stroke-width="1.6013"/>
<line x1="858.598" y1="688.958" x2="858.597" y2="1423.46" stroke="white" stroke-width="1.6013"/>
<line x1="889.074" y1="688.958" x2="889.074" y2="1423.46" stroke="white" stroke-width="1.6013"/>
<line x1="919.555" y1="688.958" x2="919.555" y2="1423.46" stroke="white" stroke-width="1.6013"/>
<line x1="950.031" y1="688.958" x2="950.031" y2="1423.46" stroke="white" stroke-width="1.6013"/>
<line x1="980.508" y1="688.958" x2="980.508" y2="1423.46" stroke="white" stroke-width="1.6013"/>
<line x1="1010.98" y1="688.958" x2="1010.98" y2="1423.46" stroke="white" stroke-width="1.6013"/>
<line x1="1041.46" y1="688.958" x2="1041.46" y2="1423.46" stroke="white" stroke-width="1.6013"/>
<line x1="1071.94" y1="688.958" x2="1071.94" y2="1423.46" stroke="white" stroke-width="1.6013"/>
<line x1="1102.41" y1="688.958" x2="1102.41" y2="1423.46" stroke="white" stroke-width="1.6013"/>
<line x1="1158.56" y1="708.044" x2="-42.2351" y2="708.044" stroke="white" stroke-width="1.6013"/>
<line x1="1158.56" y1="738.52" x2="-42.2351" y2="738.52" stroke="white" stroke-width="1.6013"/>
<line x1="1158.56" y1="768.998" x2="-42.2351" y2="768.998" stroke="white" stroke-width="1.6013"/>
<line x1="1158.56" y1="799.474" x2="-42.2351" y2="799.474" stroke="white" stroke-width="1.6013"/>
<line x1="1158.56" y1="829.952" x2="-42.2351" y2="829.952" stroke="white" stroke-width="1.6013"/>
<line x1="1158.56" y1="860.429" x2="-42.2351" y2="860.428" stroke="white" stroke-width="1.6013"/>
<line x1="1158.56" y1="890.906" x2="-42.2351" y2="890.906" stroke="white" stroke-width="1.6013"/>
<line x1="1158.56" y1="921.384" x2="-42.2351" y2="921.384" stroke="white" stroke-width="1.6013"/>
<line x1="1158.56" y1="951.86" x2="-42.2351" y2="951.86" stroke="white" stroke-width="1.6013"/>
<line x1="1158.56" y1="982.338" x2="-42.2351" y2="982.338" stroke="white" stroke-width="1.6013"/>
<line x1="1158.56" y1="1012.81" x2="-42.2351" y2="1012.81" stroke="white" stroke-width="1.6013"/>
<line x1="1158.56" y1="1043.29" x2="-42.2351" y2="1043.29" stroke="white" stroke-width="1.6013"/>
<line x1="1158.56" y1="1073.77" x2="-42.2351" y2="1073.77" stroke="white" stroke-width="1.6013"/>
<line x1="1158.56" y1="1104.25" x2="-42.2351" y2="1104.25" stroke="white" stroke-width="1.6013"/>
<line x1="1158.56" y1="1134.72" x2="-42.2351" y2="1134.72" stroke="white" stroke-width="1.6013"/>
<line x1="1158.56" y1="1165.2" x2="-42.2351" y2="1165.2" stroke="white" stroke-width="1.6013"/>
<line x1="1158.56" y1="1195.68" x2="-42.2351" y2="1195.68" stroke="white" stroke-width="1.6013"/>
<line x1="1158.56" y1="1226.15" x2="-42.2351" y2="1226.15" stroke="white" stroke-width="1.6013"/>
<line x1="1158.56" y1="1256.63" x2="-42.2351" y2="1256.63" stroke="white" stroke-width="1.6013"/>
<line x1="1158.56" y1="1287.11" x2="-42.2351" y2="1287.11" stroke="white" stroke-width="1.6013"/>
<line x1="1158.56" y1="1317.59" x2="-42.2351" y2="1317.59" stroke="white" stroke-width="1.6013"/>
<line x1="1158.56" y1="1348.06" x2="-42.2351" y2="1348.06" stroke="white" stroke-width="1.6013"/>
<line x1="1158.56" y1="1378.54" x2="-42.2351" y2="1378.54" stroke="white" stroke-width="1.6013"/>
<line x1="1158.56" y1="1409.02" x2="-42.2351" y2="1409.02" stroke="white" stroke-width="1.6013"/>
</g>
<defs>
<clipPath id="clip0_3953_10315">
<rect width="1116.32" height="704.265" fill="white"/>
</clipPath>
<clipPath id="clip1_3953_10315">
<rect width="1116.32" height="704.265" fill="white" transform="translate(0 704.265)"/>
</clipPath>
</defs>
</svg>
