<svg width="611" height="950" viewBox="0 0 611 950" fill="none" xmlns="http://www.w3.org/2000/svg">
<g clip-path="url(#clip0_4073_7119)">
<rect width="610.463" height="950" fill="white"/>
<mask id="mask0_4073_7119" style="mask-type:luminance" maskUnits="userSpaceOnUse" x="-1" y="-1" width="611" height="951">
<path d="M609.984 -0.0012207H-0.0117188V949.999H609.984V-0.0012207Z" fill="white"/>
</mask>
<g mask="url(#mask0_4073_7119)">
<path fill-rule="evenodd" clip-rule="evenodd" d="M-25.1395 270.774L131.575 189.4L126.304 243.38L134.118 269.348L155.813 262.698L163.517 254.703L162.556 213.104L213.554 201.477L278.26 197.91L361.321 199.844L438.603 194.413L483.887 223.128L507.285 230.117L631.742 278.707L637.651 -27.8855L-36.4375 -35.4424L-25.1395 270.774Z" fill="#FFD600"/>
<path fill-rule="evenodd" clip-rule="evenodd" d="M114.297 297.13L138.278 322.086L143.611 343.342C151.452 374.43 173.332 386.666 209.477 379.745C247.665 383.34 266.554 357.604 269.288 307.311C294.293 306.993 318.591 312.183 342.285 322.086C330.503 367.448 334.498 405.589 380.549 424.48C429.97 437.131 455.916 409.296 466.989 355.81L502.711 314.904L466.553 332.684L461.494 323.564C425.899 311.715 390.532 302.337 355.579 297.418L343.954 303.231L293.754 294.283L266.016 292.308L261 261.28C231.255 261.072 201.856 262.178 173.519 267.307L142.58 272.817L138.463 299.135L114.297 297.13Z" fill="#FFD600"/>
<path fill-rule="evenodd" clip-rule="evenodd" d="M156.312 287.481C144.044 342.803 158.331 370.343 200.223 369.002C249.792 373.535 264.719 340.498 250.253 275.584L156.312 287.481Z" fill="white"/>
<path fill-rule="evenodd" clip-rule="evenodd" d="M363.155 316.118C337.98 354.613 345.483 397.459 381.967 409.078C417.056 422.487 441.831 404.211 453.538 345.777L363.155 316.118Z" fill="white"/>
<path fill-rule="evenodd" clip-rule="evenodd" d="M609.99 655.385C541.883 607.029 483.037 613.924 432.42 669.917L419.953 729.858L531.551 771.997L627.549 733.89L609.99 655.385Z" fill="#FFD600"/>
<path fill-rule="evenodd" clip-rule="evenodd" d="M478.094 452.04C453.443 449.402 431.561 449.049 414.863 452.975C407.054 456.162 402.107 463.091 400.967 475C398.084 541.337 396.386 607.113 400.967 669.918C452.636 622.147 480.351 554.595 479.313 463.296L478.094 452.04Z" fill="#FFD600"/>
<path fill-rule="evenodd" clip-rule="evenodd" d="M150.73 402C141.435 470.855 154.335 522.652 178.61 565.706C204.738 504.221 215.173 446.22 157.369 403.369L150.73 402Z" fill="#FFD600"/>
<path fill-rule="evenodd" clip-rule="evenodd" d="M166.983 580.896L196.536 633.012L192.061 690.922C153.521 760.533 82.9647 792.285 -10.2744 797.215L-20.5898 684.639C27.5101 619.93 94.0515 593.739 166.983 580.896Z" fill="#FFD600"/>
<path fill-rule="evenodd" clip-rule="evenodd" d="M383.361 577.391C355.571 559.504 326.066 566.66 296.209 578.953C263.28 566.599 238.67 565.706 221.875 575.584C247.177 600.1 240.477 634.648 296.209 628.891C347.789 638.221 349.622 602.213 383.361 577.391Z" fill="#FFD600"/>
<path fill-rule="evenodd" clip-rule="evenodd" d="M227.133 761.646C293.629 816.111 360.234 784.716 443.866 853.22C436.302 933.19 316.037 951.425 199.603 972.14L-20.5898 967.979V952.894L262.66 885.382C305.661 868.502 275.146 845.371 230.765 821.062C215.458 804.166 216.371 783.922 227.133 761.646Z" fill="#FFD600"/>
<path d="M322.717 -0.00146484C324.907 2.26798 327.775 4.34391 330.343 6.17353C408.463 61.7661 483.601 122.408 562.953 176.417C578.276 186.849 598.349 197.737 612.995 209.172L611.728 263.318L501.669 190.06C500.983 189.849 504.308 202.938 504.492 204.02C505.68 210.767 505.873 217.663 506.867 224.41C506.964 225.096 507.087 225.949 507.729 226.371L611.658 264.84L611.306 279.92L507.36 236.082V245.829C540.962 267.23 610.374 314.573 611.297 314.679L612.995 362.964C599.862 354.441 583.29 343.96 570.122 335.472C561.272 329.772 552.142 324.08 543.17 318.565C532.297 311.889 521.029 305.837 510.324 298.888L509.515 299.697L511.67 310.569C518.135 309.1 526.782 310.736 531.743 315.381C536.388 319.726 539.959 330.027 541.868 336.123C544.867 345.719 546.547 355.809 549.336 365.476L611.218 394.344L611.649 439.607L551.007 414.26C546.398 423.347 541.349 432.205 537.962 441.863C534.285 452.374 532.579 463.484 528.981 474.013C533.08 475.623 537.373 477.022 541.595 478.271C551.315 481.147 561.255 484.111 571.01 486.759C583.624 490.181 600.31 493.604 612.995 496.717V535.529L519.094 506.243C514.907 512.655 506.885 514.652 499.619 513.192C497.86 512.84 495.494 510.72 493.831 510.298C493.163 510.131 492.969 509.841 492.441 510.588L489.952 530.846L485.677 548.228L611.447 579.479L611.675 618.712L474.866 575.584C469.993 587.31 465.05 599.123 458.892 610.25C452.902 621.079 446.806 631.81 440.965 642.682C438.678 646.94 434.122 652.596 432.371 656.827C432.002 657.724 432.011 658.56 432.081 659.51C434.491 659.325 435.767 656.836 437.544 655.498C455.022 642.374 473.529 630.148 494.359 622.97C511.081 617.208 523.475 615.959 541.015 619.073C565.987 623.506 590.828 636.155 611.438 650.467L611.042 697.912C604.638 698.414 595.78 698.292 589.359 698.477C549.556 699.665 509.445 699.621 469.738 699.067C458.593 698.908 447.563 699.049 436.444 698.178L435.353 698.803C436.726 718.577 452.568 729.81 470.292 734.744C489.187 740.004 509.744 742.591 528.797 747.736L611.922 721.914L611.614 951.01L165.233 951.696C165.233 951.696 418.561 908.058 418.561 868.817C418.561 833.108 312.838 818.555 265.444 800.426C253.806 795.975 241.254 792.844 233.443 782.068C230.874 778.523 229.537 774.002 226.863 770.519C224.568 780.855 221.788 793.037 224.392 803.584C231.631 832.981 288.578 835.902 288.578 867.164C288.578 885.434 255.038 892.374 237.243 896.499C219.272 900.669 19.7148 948.107 -12.7524 955.162L-20.5898 949.998C15.2639 942.759 239.337 888.495 265.18 880.024C269.288 878.678 271.487 878.062 274.495 874.72C278.894 869.829 279.113 866.231 276.606 860.188C274.1 854.145 268.004 849.773 262.673 845.965C236.645 827.404 214.302 824.229 217.1 785.367C217.68 777.345 221.524 770.132 223.019 762.426C219.818 762.11 217.319 757.975 214.425 757.219C212.086 756.603 209.684 757.28 207.336 756.726C204.987 756.172 202.243 753.102 199.92 752.715C198.258 752.434 193.93 754.606 191.3 754.589C186.638 754.554 184.755 749.179 180.894 747.473C175.282 748.862 170.33 751.739 166.213 745.863C163.336 741.746 165.087 738.72 165.157 734.507C165.166 733.9 165.456 732.994 164.594 733.143C156.009 745.898 145.41 759.26 132.593 768.012C118.942 777.336 99.4929 784.311 83.7915 789.598C56.303 798.861 27.5479 805.431 -1.63822 805.695V789.448C2.63678 789.668 6.85904 788.701 11.0901 788.375C44.7887 785.754 84.5656 774.644 114.966 759.594C136.736 748.81 149.957 723.793 164.603 705.268C168.025 700.94 170.717 698.565 172.801 692.892C174.992 686.945 172.027 684.561 172.757 679.301C173.083 676.988 175.326 674.991 175.379 673.856C175.44 672.528 173.857 670.215 173.769 668.403C173.611 665.412 175.308 659.914 176.566 657.117C177.112 655.912 178.554 654.76 178.686 653.774C178.836 652.657 178.114 651.311 178.105 650.036C178.035 643.632 180.445 642.7 182.583 637.677C183.031 636.63 182.899 635.478 183.278 634.581C184.324 632.092 185.477 629.629 186.796 627.271C179.302 615.493 171.913 603.495 166.222 590.723L165.518 590.81C159.695 593.247 153.863 595.948 147.969 598.191C143.281 599.976 138.461 601.639 133.728 603.442C86.9582 621.255 31.3127 634.053 2.49605 679.046C1.46689 680.656 0.61365 684.438 -1.62061 684.948V240.947C20.2294 229.072 40.76 214.487 63.1642 203.659C83.4573 193.851 104.92 187.087 126.357 180.217C136.728 169.099 144.354 155.763 154.338 144.302C183.92 110.348 217.319 91.7791 260.017 78.3383C277.759 72.7527 296.425 71.618 314.844 69.8147L348.71 70.9143L252.329 -0.00146484H322.717ZM448.337 138.083C439.417 133.139 431.026 126.947 422.168 121.739C403.836 110.937 373.498 95.1833 352.703 92.1221C314.607 86.5013 262.814 91.5856 227.127 106.654C208.25 114.623 179.997 135.945 165.421 150.53C143.738 172.221 134.001 194.274 136.464 225.527C137.458 238.185 139.903 250.816 142.674 263.175C143.369 264.046 143.228 263.518 143.765 263.166C146.113 261.627 148.022 259.727 150.714 258.205C153.106 256.85 155.701 255.909 158.138 254.695C158.191 245.468 157.672 236.39 157.566 227.172C157.522 222.949 157.68 219.976 157.909 215.71C158.006 213.986 156.827 212.543 158.402 210.679C159.712 209.122 170.532 206.105 173.162 205.401C211.4 195.232 251.176 193.218 290.522 192.268C305.045 191.916 320.72 193.165 334.838 191.098C363.074 186.964 406.229 170.638 429.565 154.25C433.585 151.427 445.408 142.956 447.8 139.455C448.108 138.998 448.557 138.918 448.337 138.1V138.083ZM431.017 214.417C421.147 213.74 411.621 210.749 401.901 209.148C370.243 203.949 338.401 203.325 306.215 203.043C274.029 202.762 239.592 202.577 206.711 208.057C193.103 210.327 179.671 213.924 166.292 217.179L167.867 252.866C168.474 252.936 168.931 252.883 169.485 252.593C171.499 251.546 176.557 245.151 178.976 243.128C194.854 229.837 221.366 226.6 240.981 231.992C246.857 233.611 251.695 237.419 256.7 240.683L364.147 211.145L414.876 287.4L457.546 284.26C451.697 276.035 443.49 270.493 434.104 266.966L432.899 264.793L432.653 238.492L431.008 214.417H431.017ZM363.804 217.733L262.62 245.829C271.557 258.24 278.313 273.748 280.019 289.062C290.861 290.004 301.425 291.204 311.795 292.587C311.795 292.587 358.342 291.059 381.995 289.678C390.73 289.168 399.456 287.488 408.261 288.06L363.795 217.733H363.804ZM273.449 288.596C272.93 284.532 272.578 280.196 271.452 276.246C267.564 262.542 258.495 247.324 246.119 239.856C237.181 234.464 219.694 233.206 209.552 235.264C198.249 237.56 185.829 242.767 178.158 251.52C185.969 251.942 193.877 252.391 201.548 254.115C207.687 255.496 220.761 260.416 220.761 260.416C234.221 259.773 247.872 259.478 261.67 259.445L266.684 288.623L273.466 288.605L273.449 288.596ZM258.82 264.239C216.596 264.457 177.734 267.77 146.826 278.401L141.311 305.388L115.326 297.806L141.557 318.407C145.102 336.879 145.524 355.747 161.34 368.467C177.938 381.819 210.522 377.324 230.531 374.298C260.217 369.811 265.538 328.447 265.837 317.751C265.916 315.041 265.74 302.888 265.74 302.888C265.74 302.888 295.686 304.412 308.731 307.174C320.614 309.69 341.11 317.571 341.11 317.571L345.93 319.286C345.93 319.286 342.86 333.449 341.717 340.371C339.676 352.818 339.518 366.778 341.171 379.224C345.693 413.248 392.753 435.292 422.493 419.52C442.338 409 452.102 394.53 459.693 373.876C462.182 367.103 462.596 359.486 464.328 352.519C469.492 347.567 475.139 342.06 478.816 335.867L494.887 320.263C494.887 320.263 485.994 325.083 482.915 327.238C476.186 331.953 462.754 341.576 462.754 341.576C462.754 341.576 459.279 329.068 458.523 326.587C450.527 323.138 388.979 304.789 355.879 301.884L347.909 310.288C321.701 301.336 290.332 295.837 264.042 295.533L258.82 264.213V264.239ZM468.823 305.476L423.426 307.28L462.974 321.066L467.02 329.754L475.984 323.992C474.822 317.386 471.269 311.616 468.815 305.476H468.823ZM340.019 323.825C340.019 323.825 326.772 318.996 320.007 317.026C303.875 312.337 287.503 310.204 270.685 310.75C270.834 320.865 270.148 331.746 266.357 341.087L329.683 336.325C330.07 345.755 329.956 355.237 330.282 364.702C330.537 372.179 330.572 380.025 330.95 387.423C332.296 413.504 354.269 416.661 366.813 434.298C379.954 452.761 384.264 479.475 368.431 496.479C359.534 506.035 336.852 505.623 325.707 496.066C310.192 506.999 285.629 506.111 269.314 493.356C260.694 497.596 251.739 500.015 242.459 495.837C218.683 485.123 226.476 457.582 238.571 440.798C246.066 430.401 256.577 422.449 263.254 411.331C267.678 403.951 269.499 395.656 270.203 387.15C267.054 387.115 166.89 398.216 166.204 397.741L164.612 382.268L156.572 383.702L157.153 395.7C171.438 406.062 185.767 418.157 193.244 434.597C209.878 471.216 202.084 516.746 190.895 553.919C188.925 560.454 185.864 566.594 184.113 573.086C185.486 574.986 186.163 578.1 187.131 579.868C188.424 582.225 191.74 584.248 191.423 588.022C194.106 586.21 193.341 583.07 194.643 580.413C195.337 578.988 197.026 577.95 197.413 576.692C198.583 572.928 197.308 565.31 201.979 563.665C201.548 566.163 203.465 568.028 203.624 570.447C203.747 572.259 202.937 573.825 203.069 575.259C203.21 576.772 204.899 579.006 205.172 581.328C205.444 583.65 204.89 586.421 205.356 588.726C205.858 591.189 210.238 601.392 211.619 604.128C212.121 605.122 213.176 605.703 213.581 606.494C216.405 612.045 215.85 617.454 217.381 623.269C217.909 625.283 219.721 626.664 220.161 628.608C220.556 630.367 220.134 632.074 220.521 633.657C221.287 636.727 223.996 637.748 224.128 643.052C224.225 646.931 224.453 648.989 224.744 652.71C224.919 654.936 224.55 657.003 224.137 659.167C230.452 660.97 230.971 667.505 232.361 672.986C234.261 672.792 236.17 673.733 237.982 673.619C239.592 673.513 240.893 672.361 242.45 672.088C245.899 671.481 249.285 672.009 252.047 674.12C258.301 670.892 264.679 668.886 270.572 674.041C273.871 672.247 277.328 671.042 281.163 671.561C282.711 671.772 284.998 673.003 286.186 672.986C287.892 672.959 290.751 670.382 292.642 669.757C301.113 666.934 303.057 669.159 310.683 670.734C312.249 671.059 320.826 672.994 321.371 672.994C323.632 672.994 325.971 670.822 330.528 671.455C332.665 671.754 335.551 673.953 336.624 674.006C337.231 674.041 339.702 672.572 341.426 672.475C343.309 672.379 345.138 673.258 346.687 672.942C347.681 672.739 348.507 671.666 349.493 671.376C354.067 670.012 357.515 670.338 362.168 670.778L368.097 663.996C368.053 658.243 366.522 653.37 369.381 647.951C370.27 646.262 373.252 643.738 373.507 642.867C374.36 639.999 373.304 634.625 374.307 630.675C374.914 628.256 377.597 624.527 377.861 622.811C378.16 620.867 377.57 617.674 378.089 614.965C378.441 613.127 380.033 609.995 380.095 608.843C380.157 607.691 379.532 606.793 379.682 605.236C379.998 602.052 382.831 599.871 383.262 597.918C383.693 595.965 382.699 594.399 382.945 592.236C383.394 588.321 386.349 585.058 387.027 582.217C387.704 579.375 387.748 575.804 388.258 573.156C388.601 571.344 389.947 569.717 389.314 567.448L392.014 569.348L394.178 573.403C395.189 564.633 395.251 555.951 394.706 547.119C396.896 524.917 396.236 502.117 397.054 480.127C398.365 444.986 419.511 447.176 448.161 446.903C456.095 446.824 466.404 448.214 474.084 447.264C474.532 447.211 475.051 447.281 475.447 447L475.878 446.349C476.432 436.268 477.118 426.188 477.602 416.125C478.482 397.987 480.188 378.301 480.311 360.348C480.329 357.436 479.704 354.261 479.194 351.402C478.728 351.059 471.163 359.028 470.846 359.565C468.445 363.629 467.785 371.079 465.674 375.565C465.217 377.597 467.126 378.23 468.058 379.603C470.547 383.262 473.09 386.437 471.022 391.135C467.161 395.753 463.924 391.548 460.801 388.76C458.048 400.16 450.21 409.95 441.414 417.453C419.063 436.515 397.116 435.556 370.762 424.921C359.547 420.4 344.426 403.766 339.667 392.665C334.627 380.922 333.167 359.582 334.706 346.863C335.621 339.316 340.037 323.817 340.037 323.817L340.019 323.825ZM134.828 327.045C125.688 326.403 120.718 337.178 121.967 345.051C122.601 349.088 125.926 352.413 126.981 356.284C131.072 371.29 115.669 397.626 116.98 415.025C118.053 429.337 132.215 432.372 143.501 436.418C143.07 433.102 146.228 371.149 146.228 371.149C141.522 363.039 138.39 354.445 136.385 345.262C135.127 339.465 133.807 332.894 134.836 327.054L134.828 327.045ZM502.883 489.336C503.111 489.108 505.741 484.402 506.12 483.645C511.169 473.626 515.321 456.526 514.96 445.329C514.661 435.881 510.922 430.982 514.019 420.602C514.969 417.409 517.74 412.545 518.091 409.475C518.329 407.381 516.79 403.898 516.578 401.488C515.769 392.463 517.326 381.459 520.642 373.076C521.214 371.624 522.49 370.534 522.938 368.88C525.454 359.679 524.592 337.987 518.443 330.317C515.963 327.221 513.755 328.004 510.676 329.543C505.486 332.129 504.158 338.058 501.317 342.931C500.666 344.048 499.452 344.699 498.784 345.816C494.394 353.17 494.06 357.946 493.286 366.311C491.474 385.918 490.656 405.71 489.486 425.361C488.562 440.93 485.053 464.408 488.817 479.062C489.565 481.983 490.568 486.821 492.732 489.231C493.233 489.785 496.681 492.134 497.244 492.098C498.467 491.157 502.021 490.207 502.883 489.345V489.336ZM286.467 360.101C287.092 369.557 287.03 379.04 286.995 388.531C286.933 406.942 289.15 425.263 289.15 443.719C289.15 465.353 299.912 471.045 304.991 470.607C312.15 469.99 319.762 467.123 319.436 439.426C319.203 419.696 315.636 357.603 315.636 357.603L286.458 360.11L286.467 360.101ZM178.149 557.165C180.164 557.288 179.68 554.886 180.146 553.488C183.911 542.246 189.303 529.755 191.52 518.294C198.487 482.22 198.293 452.524 174.561 422.942C169.045 416.072 162.211 412.342 154.857 407.724C154.672 411.181 153.995 414.858 153.775 418.289C152.139 443.763 153.845 470.794 157.636 496.18C160.838 517.59 168.702 537.874 178.141 557.173L178.149 557.165ZM277.706 425.66C272.798 423.822 265.884 422.819 263.702 428.836L277.697 427.683V425.66H277.706ZM255.425 435.415L249.883 440.755L250.49 441.749C251.845 441.898 253.463 441.317 254.704 441.361C260.386 441.581 269.086 443.446 274.284 442.954C278.762 442.531 277.759 437.817 275.225 437.086C273.994 436.726 268.883 436.462 267.238 436.409C265.163 436.339 262.805 437.113 261.31 436.972C259.709 436.823 257.351 434.914 255.425 435.433V435.415ZM242.037 453.738C247.183 455.286 252.786 454.829 258.002 455.374C263.219 455.919 269.367 457.617 274.275 457.256C278.814 456.931 278.058 451.899 273.035 451.178C265.611 450.105 256.973 450.07 249.364 449.401C247.843 449.269 246.259 448.794 244.808 448.372L242.046 453.738H242.037ZM475.403 456.993C471.436 457.124 467.187 457.248 463.203 457.019C453.703 456.473 444.062 455.154 434.553 454.811C421.763 454.354 411.709 455.541 407.038 469.035C404.804 475.482 406.035 479.599 405.552 485.959C405.121 491.632 403.678 498.194 403.37 503.815C402.473 520.405 404.514 537.171 402.288 553.629C403.792 573.218 400.371 595.613 402.288 614.86C402.587 617.859 404.716 619.935 405.05 622.389C405.499 625.723 404.857 629.391 404.021 632.593C410.029 638.372 411.586 644.837 409.906 653L421.279 634.326C449.269 584.055 478.024 531.638 474.312 471.867L475.421 456.993H475.403ZM237.357 462.05C236.847 462.543 234.595 466.545 234.543 467.099L235.255 468.278C237.137 467.143 238.888 468.234 240.7 468.348C247.913 468.797 255.17 469.246 262.348 469.985C264.925 470.248 274.715 472.483 276.483 471.119L277.53 468.955C277.653 468.445 277.469 468.041 277.196 467.627C274.557 463.458 256.393 463.563 251.036 462.868C247.306 462.385 240.111 459.385 237.349 462.042L237.357 462.05ZM273.44 483.531C270.009 481.895 254.402 473.168 235 476.494C236.768 481.367 239.34 487.019 244.535 488.334C260.918 492.479 265.945 485.246 269.622 484.314C270.827 484.006 272.947 484.499 273.431 483.531H273.44ZM330.299 486.768C331.953 486.935 333.633 487.516 335.163 488.14C341.998 490.92 343.801 493.919 352.132 492.503C357.242 491.632 361.086 488.545 363.285 483.874C357.382 479.11 343.116 474.415 330.308 486.777L330.299 486.768ZM394.723 578.821V575.039H394.195V578.821H394.723ZM596.159 652.455C591.118 648.242 584.679 644.45 578.848 641.345C532.227 616.531 490.365 624.025 450.501 657.055C448.557 658.665 446.375 660.935 444.554 662.738L596.167 652.446L596.159 652.455Z" fill="#101010"/>
<path d="M522.514 -0.00146484L612.993 74.4653L612.448 139.407C607.935 136.03 441.289 3.31474 438.598 0.00733145H522.523L522.514 -0.00146484Z" fill="#101010"/>
<path d="M223.671 576.086L223.223 574.309C223.504 571.741 229.503 570.149 231.377 568.961C242.363 561.959 256.094 552.134 268.365 547.498C280.601 542.871 287.198 548.369 297.534 553.726C302.24 551.395 307.078 549.134 312.294 548.105C325.225 545.545 334.637 550.533 346.362 555.45C355.22 559.162 365.151 563.446 373.807 567.536C375.751 568.451 378.996 569.841 380.615 571.011C382.233 572.181 385.699 575.629 382.233 576.42C375.856 575.391 370.754 571.908 364.139 572.339C353.012 573.06 340.486 574.397 329.746 577.467C316.472 581.258 304.166 588.999 289.67 586.149C275.913 583.449 263.035 576.253 248.741 574.556C239.953 573.518 232.292 574.397 223.671 576.077V576.086Z" fill="#101010"/>
<path d="M352.82 602.447C361.616 592.833 363.63 585.699 376.657 579.445C379.93 577.879 385.111 575.882 382.753 581.758C380.097 583.896 376.068 585.69 373.79 588.224C365.592 597.31 358.695 609.528 349.794 619.187C336.749 633.349 330.855 636.445 311.107 637.316C294.289 638.055 269.466 637.773 254.662 629.83C234.685 619.107 237.087 601.612 225.695 585.699C224.121 583.5 216.697 579.225 222.027 577.519C224.737 576.648 229.698 580.448 231.765 582.348C244.097 593.633 248.575 607.936 264.074 617.726C273.837 623.893 298.494 625.194 309.973 624.35C323.704 623.338 343.557 612.598 352.837 602.465L352.82 602.447Z" fill="#101010"/>
<path d="M279.51 521.003L281.533 521.187L295.915 528.972L317.853 522.208C323.852 525.383 329.534 529.262 335.12 533.124C341.409 537.469 347.223 542.342 353.407 546.785C355.923 548.588 365.625 553.795 366.338 556.065C366.523 556.663 366.725 557.279 366.523 557.912L365.212 558.818C364.236 558.897 357.814 556.285 356.442 555.651C345.57 550.681 334.574 543.952 323.729 539.088C321.82 538.235 319.489 537.636 317.554 536.616C314.704 538.076 311.88 539.721 308.907 540.935C304.166 542.862 298.668 543.644 294.736 546.802L279.941 538.446C279.351 538.164 278.797 538.155 278.173 538.314C276.448 538.754 270.731 542.694 268.488 543.838C258.17 549.116 249.461 555.282 239.68 560.507C237.833 561.492 235.818 563.155 234.525 560.612C234.27 559.284 242.627 551.218 244.184 549.855C250.886 543.97 259.067 538.032 266.139 532.28C270.625 528.629 275.622 525.181 279.501 521.011L279.51 521.003Z" fill="#101010"/>
<path d="M265.062 508.98C266.531 509.103 266.496 510.15 266.302 511.284C265.625 515.427 260.453 527.83 258.535 532.246C258.034 533.389 256.081 539.001 254.77 538.755C253.583 538.535 254.348 537.427 254.498 536.873C256.16 530.724 259.863 521.558 262.212 515.339C262.573 514.398 264.525 509.103 265.062 508.98Z" fill="#101010"/>
<path d="M258.825 513.307C259.942 514.644 254.383 529.519 253.574 532.14C252.58 535.342 252.043 539.942 250.75 542.854C250.39 543.672 250.187 544.367 249.088 544.165C248.235 543.135 252.545 528.754 253.275 526.423C254.242 523.326 255.87 517.204 257.18 514.618C257.576 513.835 257.682 513.078 258.834 513.298L258.825 513.307Z" fill="#101010"/>
<path d="M271.811 505.734C271.934 506.851 271.785 507.907 271.565 509.006C270.694 513.422 267.747 521.866 266.102 526.291C265.671 527.452 263.367 533.319 262.337 533.346L261.625 531.578C265.319 523.986 266.217 514.029 270.465 506.807C270.879 506.103 270.368 505.444 271.811 505.743V505.734Z" fill="#101010"/>
<path d="M357.898 542C357.142 542.879 354.828 538.56 354.556 538.041C352.937 535.015 346.938 522.102 346.63 519.393C346.402 517.361 348.108 516.974 348.812 518.874L357.898 542Z" fill="#101010"/>
<path d="M349.793 537.673C347.866 538.201 347.682 536.169 346.996 534.788C344.788 530.363 341.41 522.587 340.029 517.934C339.73 516.94 339.352 516.008 339.51 514.935L341.392 515.48L349.793 537.664V537.673Z" fill="#101010"/>
<path d="M245.824 538.755C245.033 537.814 249.097 523.106 249.765 520.775C250.055 519.781 250.733 515.744 252.043 516.025C253.055 516.72 252.87 517.274 252.747 518.312C252.43 521.101 248.736 535.228 247.566 537.532C247.179 538.297 246.827 538.966 245.824 538.764V538.755Z" fill="#101010"/>
<path d="M239.859 544.709C237.783 543.557 239.446 539.405 239.903 537.443C240.862 533.327 242.507 527.574 243.949 523.624C244.249 522.806 244.935 520.115 246.078 520.352C247.239 521.161 246.764 521.381 246.518 522.393C244.688 529.923 241.909 537.25 239.859 544.709Z" fill="#101010"/>
<path d="M361.16 527.389C361.952 527.292 362.462 527.363 363.095 527.882C364.16 528.753 369.983 545.342 370.396 547.665C370.555 548.562 371.311 548.764 370.088 549.573L361.16 527.389Z" fill="#101010"/>
<path d="M236.066 547.419H234.457C233.7 546.689 237.773 529 238.424 526.739C238.582 526.185 238.644 524.769 239.594 525.226C240.781 526.123 240.464 527.417 240.35 528.666C239.822 534.761 236.832 541.271 236.066 547.419Z" fill="#101010"/>
<path d="M363.864 545.791C362.421 546.09 362.931 545.431 362.518 544.727C361.242 542.554 353.273 523.889 354.117 523.053L356.167 523.977L363.864 545.783V545.791Z" fill="#101010"/>
<path d="M341.673 531.717C339.896 532.121 339.193 530.353 338.568 529.14C337.68 527.398 331.848 511.872 332.463 511.151L334.1 510.852L341.664 531.726L341.673 531.717Z" fill="#101010"/>
<path d="M269.113 524.672C268.418 523.977 274.188 507.888 274.997 505.927C276.15 503.13 277.39 503.684 277.003 506.288C276.677 508.487 272.042 522.816 270.977 524.118L269.104 524.681L269.113 524.672Z" fill="#101010"/>
<path d="M328.057 507.966L334.628 527.925C332.948 528.33 332.675 527.133 332.086 525.884C329.5 520.466 327.714 513.657 325.973 507.896L328.066 507.966H328.057Z" fill="#101010"/>
<path d="M321.357 506.279L328.227 524.865C328.921 525.367 328.279 526.211 327.848 526.299C326.054 526.66 323.767 518.928 323.239 517.38C322.491 515.163 320.899 510.659 320.671 508.566C320.556 507.51 320.301 507 321.357 506.279Z" fill="#101010"/>
<path d="M231.746 546.882C230.998 547.709 230.76 546.812 230.664 546.073C230.444 544.402 232.185 535.984 232.845 534.172C233.153 533.336 233.443 532.799 234.182 532.271C235.29 533.002 234.93 533.521 234.859 534.55C234.596 538.517 232.528 542.977 231.737 546.882H231.746Z" fill="#101010"/>
<path d="M375.111 537.278C376.562 538.738 378.075 545.203 377.943 547.42C376.448 549.223 373.263 539.09 373.184 538.36C372.982 536.618 374.09 536.257 375.111 537.278Z" fill="#101010"/>
<path d="M369.783 534.47L373.082 544.164C372.167 544.287 371.877 544.243 371.199 543.619C370.372 542.862 367.602 535.016 368.217 534.427L369.792 534.47H369.783Z" fill="#101010"/>
<path d="M229.579 538.763C230.151 539.326 227.67 546.249 227.125 547.428C226.746 548.237 227.204 548.765 225.796 548.501C225.691 545.255 226.755 542.071 227.925 539.098L229.588 538.763H229.579Z" fill="#101010"/>
<path d="M382.818 547.956C381.516 549.504 378.156 540.848 379.035 539.837C381.701 539.406 383.539 547.102 382.818 547.956Z" fill="#101010"/>
<path d="M224.716 542.546C224.874 543.69 224.663 544.57 224.294 545.643C224.109 546.17 223.036 548.37 222.016 547.956L223.089 542.907L224.716 542.538V542.546Z" fill="#101010"/>
<path d="M219.825 545.255C219.984 546.346 219.667 547.358 219.447 548.404C219.324 548.994 219.535 550.648 218.479 550.12C217.063 549.425 217.696 546.742 218.154 545.572L219.825 545.255Z" fill="#101010"/>
<path d="M251.175 272.965C252.969 281.498 254.561 290.487 255.573 299.161C258.009 320.105 260.208 345.807 242.853 361.148C237.725 365.678 233.468 366.927 226.888 368.458C209.586 372.495 184.024 373.586 168.78 363.206C162.086 358.65 156.21 352.932 153.94 345.016C150.088 331.61 150.246 313.534 151.627 299.688C151.847 297.463 153.668 285.025 154.556 284.216C155.867 283.028 169.818 280.108 172.606 279.527C191.8 275.543 212.392 273.555 231.999 272.86C238.455 272.631 244.815 273.405 251.175 272.956V272.965ZM251.962 301.229C251.065 294.895 249.6 279.164 248.254 277.572C248.07 281.662 248.439 283.908 245.809 287.242C245.422 287.673 244.894 287.699 244.393 287.849C241.182 288.799 226.422 283.908 221.672 283.239C207.29 281.207 190.067 284.224 175.852 287.118C169.431 288.42 163.106 290.408 156.694 291.789C154.292 299.75 154.451 308.88 154.319 317.29L167.038 307.007C186.504 293.144 208.002 290.25 231.392 294.085C238.895 295.317 245.888 298.809 252.855 301.588L251.962 301.229ZM222.543 325.954C223.985 327.247 243.364 318.424 246.187 316.841C248.703 315.434 255.81 312.144 253.682 308.617C252.415 306.514 225.102 299.697 220.915 300.515C221.003 301.368 222.156 301.342 222.833 302.107C227.108 306.901 227.372 315.363 224.97 321.09C224.627 321.908 221.98 325.462 222.534 325.954H222.543ZM192.758 304.306C186.782 304.064 159.996 323.021 160.282 324.872C171.823 328.232 184.006 329.622 196.022 329.745C194.025 327.705 192.107 327.274 190.709 324.512C188.228 319.603 188.589 313.78 190.507 308.801C190.814 308.01 193.075 304.579 192.776 304.306H192.758ZM247.366 348.622C250.791 346.849 254.935 327.592 253.343 323.337C243.456 330.214 229.589 335.307 218.848 337.97L219.825 352.264L247.366 348.622ZM209.005 340.037C189.725 341.287 168.033 337.244 154.855 333.009C155.697 353.968 178.529 370.294 211.116 366.514L209.005 340.028V340.037Z" fill="#101010"/>
<path d="M437.751 395.534C428.868 406.043 414.555 417.636 400.175 416.453C382.586 415.004 369.379 406.108 360.272 399.589C343.671 387.714 346.527 345.799 353.457 329.031C355.753 323.484 360.018 318.079 363.119 312.95C367.158 312.741 392.508 318.64 400.67 320.274C415.066 323.165 429.203 322.218 442.511 331.051C445.771 333.213 444.79 334.067 446.19 335.626C447.044 336.573 456.664 340.233 457.477 341.599C458.81 344.247 450.539 380.417 437.751 395.534ZM377.063 321.958L362.449 319.972C357.991 325.713 355.15 332.4 353.574 339.473C350.524 353.123 351.328 379.669 358.92 391.77C364.928 401.34 390.086 410.732 401.223 411.646C415.368 412.802 427.594 401.227 435.933 390.71C440.667 384.735 445.93 369.925 445.93 369.925C440.818 375.816 433.444 381.171 426.748 385.302C416.6 391.554 407.114 396.714 394.854 395.732C380.206 394.559 363.094 380.375 365.03 381.179C366.245 381.691 387.563 390.522 399.689 388.501C414.966 385.955 434.625 372.724 439.469 366.565C439.821 366.121 441.078 364.629 440.793 364.252C429.983 354.313 416.173 345.556 401.415 343.26C388.251 341.207 374.549 344.936 363.303 351.749C358.376 350.936 365.474 347.165 367.435 346.118C380.859 338.928 393.337 337.931 408.111 340.696C423.279 343.528 433.955 351.397 445.41 361.143C448.628 358.478 449.65 356.031 449.575 351.866C439.913 349.998 432.681 342.866 424.167 338.568C407.474 330.137 388.485 332.232 371.39 338.216C368.675 339.162 361.15 343.671 358.619 342.766C354.379 338.324 356.977 332.836 361.108 329.475L377.063 321.967V321.958Z" fill="#101010"/>
<path d="M396.059 345.801C401.581 345.407 411.746 350.2 413.724 355.714C417.051 364.974 412.936 377.971 403.5 382.169C396.679 385.211 384.98 382.119 380.765 375.776C372.855 363.868 382.55 346.764 396.059 345.801Z" fill="#101010"/>
<path d="M331.608 272.112C314.921 256.728 339.727 226.213 357.996 236.813C386.822 253.535 357.838 296.293 331.608 272.112ZM362.052 244.386C342.181 223.442 312.097 263.378 342.216 274.232C360.248 280.733 374.736 257.757 362.052 244.386Z" fill="#101010"/>
</g>
</g>
<defs>
<clipPath id="clip0_4073_7119">
<rect width="610.463" height="950" fill="white"/>
</clipPath>
</defs>
</svg>
