<svg width="460" height="868" viewBox="0 0 460 868" fill="none" xmlns="http://www.w3.org/2000/svg">
<g clip-path="url(#clip0_4094_7259)">
<rect width="459.39" height="867.39" transform="translate(459.391 867.78) rotate(-180)" fill="white"/>
<g clip-path="url(#clip1_4094_7259)">
<rect width="457" height="384" transform="translate(459.391 867.78) rotate(-180)" fill="#FFD600"/>
<path fill-rule="evenodd" clip-rule="evenodd" d="M-0.6875 479.446V883.012H156.347C171.16 786.07 192.319 691.567 247.192 621.452C235.518 719.901 242.888 792.777 261.825 876.915H355.718C384.415 853.533 440.874 771.355 463.635 746.145V539.315C430.75 579.003 401.772 622.734 376.083 669.85C380.708 603.844 393.206 540.811 410.115 479.446H171.16C136.321 563.628 105.15 651.33 76.576 741.544C76.576 655.595 91.1098 558.044 111.23 479.446H-0.6875Z" fill="#101010"/>
</g>
<rect width="459.39" height="459.39" transform="translate(459.391 459.78) rotate(-180)" fill="white"/>
<path fill-rule="evenodd" clip-rule="evenodd" d="M0.000427246 459.78L459.391 459.78L459.391 0.390076L0.000467407 0.390036L0.000427246 459.78ZM42.1827 418.017L83.5278 418.017L83.5278 343.729L188.77 418.017L188.77 341.666L302.365 418.017L302.365 341.666L415.959 415.954L415.959 261.187L374.614 261.187L374.614 337.539L261.019 263.251L261.019 339.602L147.425 263.251L147.425 335.475L42.1827 261.187L42.1827 418.017ZM63.064 169.4C97.0302 207.968 154.294 231.657 205.057 235.805C267.377 240.902 334.458 224.91 381.714 182.813C389.555 175.838 412.606 150.518 415.124 141.521C417.311 133.7 400.124 112.879 394.243 106.379C317.747 21.8349 158.729 19.4618 75.1752 95.0293C67.8909 101.612 45.3085 127.056 43.0179 135.269C40.8925 142.904 57.3892 162.962 63.064 169.4Z" fill="#101010"/>
<path d="M395.075 169.4C361.109 207.968 303.845 231.657 253.081 235.805C190.762 240.902 123.68 224.909 76.4249 182.813C68.5834 175.838 45.5323 150.518 43.0147 141.521C40.8274 133.7 58.015 112.879 63.8961 106.379C140.392 21.8346 299.41 19.4616 382.963 95.029C390.248 101.612 412.83 127.055 415.121 135.268C417.246 142.904 400.749 162.961 395.075 169.4Z" fill="#FFD600"/>
<circle cx="228.427" cy="137.311" r="83.2102" transform="rotate(-180 228.427 137.311)" fill="#101010"/>
<path d="M222.785 151.374L222.785 187.583L240.542 187.583L240.542 158.588L252.612 147.906L279.387 147.906L279.387 130.703L243.456 130.703L222.785 151.374Z" fill="white"/>
<path d="M235.418 123.628L235.418 87.4194L217.661 87.4194L217.661 116.414L205.591 127.096L178.816 127.096L178.816 144.299L214.747 144.299L235.418 123.628Z" fill="white"/>
</g>
<defs>
<clipPath id="clip0_4094_7259">
<rect width="459.39" height="867.39" fill="white" transform="translate(459.391 867.78) rotate(-180)"/>
</clipPath>
<clipPath id="clip1_4094_7259">
<rect width="457" height="384" fill="white" transform="translate(459.391 867.78) rotate(-180)"/>
</clipPath>
</defs>
</svg>
